<svg width="160" height="42" viewBox="0 0 160 42" fill="none" xmlns="http://www.w3.org/2000/svg">
<path d="M9.11758 41.7391C14.5997 41.7391 18.2929 38.3377 18.2929 33.2068V27.6723C18.2929 18.3906 6.4631 17.8717 6.4631 12.5679V8.41701C6.4631 6.80278 7.50181 5.76507 9.11758 5.76507C10.7334 5.76507 11.8298 6.86044 11.8298 8.41701V13.8938H18.1775V8.47466C18.1775 3.40139 14.542 0 9.11758 0C3.6932 0 0.115416 3.40139 0.115416 8.47466V13.3173C0.115416 22.5991 11.9452 23.1179 11.9452 28.3642V33.2068C11.9452 34.8787 10.7911 35.9741 9.11758 35.9741C7.4441 35.9741 6.34768 34.8787 6.34768 33.2068V27.1535H0V33.2068C0 38.3377 3.63549 41.7391 9.11758 41.7391Z" fill="#FF000C"/>
<path d="M33.604 41.0473H40.2979L35.0466 0.691807H25.1211L19.8122 41.0473H26.2176L27.2563 30.9008H32.5653L33.604 41.0473ZM27.7756 25.5969L29.3337 10.2618V6.97574H30.4301V10.2618L31.9882 25.5969H27.7756Z" fill="#FF000C"/>
<path d="M49.025 35.2822V0.691807H42.6774V41.0473H55.719V35.2822H49.025Z" fill="#FF000C"/>
<path d="M59.4969 41.0473H69.3647L74.212 0.691807H67.8643L65.1521 30.7855V34.7634H64.0557V30.7855L61.2858 0.691807H54.5919L59.4969 41.0473Z" fill="#FF000C"/>
<path d="M87.7036 41.0473H94.3975L89.1462 0.691807H79.2207L73.9118 41.0473H80.3172L81.3559 30.9008H86.6648L87.7036 41.0473ZM81.8752 25.5969L83.4333 10.2618V6.97574H84.5297V10.2618L86.0878 25.5969H81.8752Z" fill="#FF000C"/>
<path d="M106.299 0.691807H96.777V41.0473H106.299C111.55 41.0473 115.07 37.7612 115.07 32.8609V8.87821C115.07 3.9779 111.55 0.691807 106.299 0.691807ZM108.722 32.515C108.722 34.1869 107.568 35.2822 105.895 35.2822H103.125V6.45688H105.895C107.568 6.45688 108.722 7.55224 108.722 9.22412V32.515Z" fill="#FF000C"/>
<path d="M127.925 41.7391C133.407 41.7391 137.042 38.3377 137.042 33.2068V8.47466C137.042 3.40139 133.407 0 127.925 0C122.443 0 118.807 3.40139 118.807 8.47466V33.2068C118.807 38.3377 122.443 41.7391 127.925 41.7391ZM127.925 35.9741C126.251 35.9741 125.155 34.8787 125.155 33.2068V8.53231C125.155 6.86043 126.251 5.76507 127.925 5.76507C129.598 5.76507 130.695 6.86043 130.695 8.53231V33.2068C130.695 34.8787 129.598 35.9741 127.925 35.9741Z" fill="#FF000C"/>
<path d="M153.595 41.0473H160L155.845 23.8674C158.038 22.5414 159.308 20.2354 159.308 17.3529V8.70526C159.308 3.8626 155.845 0.691807 150.709 0.691807H141.015V41.0473H147.362V25.1934H150.017L153.595 41.0473ZM147.362 6.45688H150.132C151.806 6.45688 152.96 7.55224 152.96 9.22412V16.9493C152.96 18.6212 151.806 19.7166 150.132 19.7166H147.362V6.45688Z" fill="#FF000C"/>
</svg>
